Coordinates
version=1
nRows=27
nColumns=19
inDegrees=yes

Units are S.I. units (second, meters, Newtons, ...)
If the header above contains a line with 'inDegrees', this indicates whether rotational values are in degrees (yes) or radians (no).

endheader
time	pelvis_tilt	pelvis_list	pelvis_rotation	pelvis_tx	pelvis_ty	pelvis_tz	hip_flexion_r	hip_adduction_r	hip_rotation_r	knee_angle_r	knee_angle_r_beta	ankle_angle_r	hip_flexion_l	hip_adduction_l	hip_rotation_l	knee_angle_l	knee_angle_l_beta	ankle_angle_l
     16.87333333	     -1.21038966	      7.61854463	      7.86930393	      2.35679734	      0.94316316	      1.05117740	    -12.63120515	     -8.11135824	    -17.03724265	     96.61170415	      1.68619233	     -5.20367712	     24.89084078	     13.42546802	      3.29254369	     18.67052384	      0.32586211	      4.84978517
     16.88000000	     -0.46803585	      8.42030435	      8.36970322	      2.35491363	      0.93852531	      1.04981433	    -11.74255827	     -9.18346770	    -16.98756966	    101.10151661	      1.76455434	     -4.27133230	     24.17316969	     14.08281321	      1.84103653	     21.97717075	      0.38357399	      4.99178499
     16.88666667	     -1.11398052	      8.48936192	      8.49467767	      2.35256722	      0.93232946	      1.04911692	     -8.67962427	     -9.56708681	    -15.88788048	    105.77135894	      1.84605847	     -3.49387127	     25.26478113	     13.91335702	      0.19820674	     25.81485448	      0.45055421	      5.61879375
     16.89333333	     -0.40904535	      9.25632437	      8.92938909	      2.35018368	      0.92754056	      1.04834652	     -7.47647961	    -10.60448016	    -15.50896559	    109.91474738	      1.91837424	     -2.83236515	     24.54923062	     14.44309506	     -0.73859021	     29.32577100	      0.51183126	      6.59261016
     16.90000000	     -1.21154840	      9.13668673	      8.99602106	      2.34725757	      0.92148038	      1.04825064	     -3.84363957	    -10.78261961	    -14.10754867	    114.15835792	      1.99243921	     -2.33121805	     25.65860058	     14.07064262	     -1.68292332	     33.07034102	      0.57718634	      7.90049809
     16.90666667	     -0.60973261	      9.69265165	      9.26197334	      2.34450752	      0.91739478	      1.04809650	     -2.10745593	    -11.61798541	    -13.28445870	    117.75042655	      2.05513264	     -1.86063631	     24.75759593	     14.39302240	     -1.94664513	     36.17803324	      0.63142580	      9.64190702
     16.91333333	      0.70036136	      9.59834536	     10.14555494	      2.34403435	      0.91594820	      1.04793106	     -1.50632858	    -11.35516971	    -13.35357946	    119.82310418	      2.09130769	     -1.79757890	     22.57783461	     14.18472943	     -1.00607860	     38.86223613	      0.67827398	     11.75927905
     16.92000000	      4.74656714	      9.85833596	     11.68907294	      2.34613389	      0.91947572	      1.04755858	     -4.87757143	    -10.80744157	    -14.99282280	    119.93617886	      2.09328121	     -1.87726811	     16.48095197	     13.99687415	      1.36112064	     40.48724438	      0.70663572	     14.21037456
     16.92666667	      8.52825946	     10.02596105	     12.66870726	      2.34748278	      0.92340543	      1.04764583	     -7.45717836	    -10.22548375	    -15.96015639	    119.95919499	      2.09368292	     -1.94308557	     10.44065272	     13.26907955	      3.41440718	     41.41201674	      0.72277604	     16.65898187
     16.93333333	     11.80608307	      9.99642900	     13.19079892	      2.34787767	      0.92740565	      1.04787441	     -8.98332594	     -9.68593599	    -16.31841426	    119.96826392	      2.09384120	     -1.94486198	      4.80688121	     12.17145756	      5.16875362	     41.70475115	      0.72788522	     18.94097498
     16.94000000	     14.45523419	      9.59115363	     13.34899603	      2.34739531	      0.93133741	      1.04811823	     -9.32040969	     -9.04423603	    -16.13675152	    119.97263952	      2.09391757	     -1.79088143	     -0.21641728	     10.69637930	      6.54526491	     41.43353703	      0.72315164	     20.95779267
     16.94666667	     16.40306153	      8.80369003	     13.26315368	      2.34608296	      0.93503791	      1.04823242	     -8.47464794	     -8.32908688	    -15.56655896	    119.97464055	      2.09395250	     -1.49093946	     -4.51428764	      8.96054889	      7.48073762	     40.70126810	      0.71037114	     22.58847323
     16.95333333	     17.58433129	      7.79133080	     12.88266134	      2.34419113	      0.93839869	      1.04817866	     -6.49702003	     -7.71317119	    -14.61537142	    119.97528892	      2.09396381	     -1.05168107	     -8.09398833	      7.28722982	      8.03841935	     39.50175834	      0.68943574	     23.74124870
     16.96000000	     17.73567829	      6.36796835	     12.32230667	      2.34188297	      0.94101611	      1.04799059	     -3.08080259	     -6.90445837	    -13.39408753	    119.97484600	      2.09395608	     -0.51100469	    -10.51757571	      5.52632011	      8.05585376	     38.15169231	      0.66587265	     24.36683325
     16.96666667	     17.20597905	      4.94162606	     11.44681129	      2.33924141	      0.94297985	      1.04778423	      1.22066706	     -6.18934436	    -11.87856410	    119.97312561	      2.09392606	      0.13796916	    -12.31144872	      4.09008140	      7.68089805	     36.58468833	      0.63852327	     24.41048687
     16.97333333	     15.88821104	      3.59142295	     10.17127764	      2.33652786	      0.94407910	      1.04779726	      6.47525101	     -5.54278648	    -10.03564443	    119.96986091	      2.09386908	      0.82838084	    -13.34372083	      3.04336274	      6.74117487	     34.90621910	      0.60922845	     23.79957269
     16.98000000	     13.32697774	      2.26848899	      8.56106904	      2.33403871	      0.94367925	      1.04811996	     13.18615332	     -4.74354865	     -7.89617547	    119.96418231	      2.09376997	      1.46903687	    -12.99499126	      2.35714015	      5.37382312	     33.43557758	      0.58356092	     22.82637156
     16.98666667	     10.12314691	      1.55675797	      6.62340839	      2.33171638	      0.94216575	      1.04878179	     20.51424657	     -4.24740225	     -5.45698462	    119.95366342	      2.09358638	      2.06477853	    -12.07393021	      2.37642308	      3.59719374	     31.90389121	      0.55682795	     21.08687387
     16.99333333	      6.51503188	      1.58464552	      4.39701243	      2.32959043	      0.93947165	      1.04991403	     28.21823068	     -3.93607018	     -2.61277313	    119.92857447	      2.09314849	      2.63393811	    -10.76002022	      3.15643653	      1.57153824	     30.38339697	      0.53029032	     18.81894630
     17.00000000	      2.93509685	      2.42635786	      2.05871511	      2.32792243	      0.93597088	      1.05129037	     35.78644520	     -3.73081818	      0.64826007	    119.81383112	      2.09114584	      3.13307822	     -9.50861829	      4.66266929	     -0.60990056	     28.75064187	      0.50179336	     16.02037996
     17.00666667	      1.28004835	      2.39344090	      0.68582977	      2.32842092	      0.93625724	      1.05166479	     40.09184545	     -2.88766275	      1.98107266	    118.22073385	      2.06334105	      3.78139990	    -10.58097549	      4.92531416	     -2.06878030	     26.49314628	      0.46239263	     12.55525996
     17.01333333	     -0.18462196	      1.11372540	      0.50721694	      2.33085344	      0.93906094	      1.05067131	     43.04859327	     -1.68880579	      1.16827029	    115.22485008	      2.01105301	      4.49382879	    -11.80101383	      3.65533618	     -2.68975661	     24.33035787	      0.42464485	      8.58339402
     17.02000000	     -0.22164896	     -0.37047722	     -0.46679245	      2.33361946	      0.94343965	      1.05069187	     44.24014325	      0.29834431	      0.73190785	    111.86550029	      1.95242130	      5.10478324	    -14.82704120	      2.36820158	     -4.33878046	     21.55355672	      0.37618053	      4.18023660
     17.02666667	     -1.22384132	     -1.62244090	     -1.05944038	      2.33640547	      0.94679328	      1.05043854	     46.28902097	      1.70529714	      0.03989898	    108.35428083	      1.89113896	      5.61376453	    -16.42206144	      1.25110034	     -5.84732010	     19.48302455	      0.34004293	     -0.34247250
     17.03333333	     -1.94770237	     -2.83413111	     -1.45478251	      2.33920739	      0.95052412	      1.05017225	     47.76314717	      2.83293360	     -0.90668666	    104.57085441	      1.82510571	      6.11931878	    -18.11475253	      0.15763057	     -7.24357334	     17.72365242	      0.30933609	     -4.89257680
     17.04000000	     -3.01654672	     -3.76822894	     -1.99941152	      2.34188160	      0.95367474	      1.05036489	     49.48812693	      3.82110361	     -1.64335266	    100.65832109	      1.75681912	      6.43481099	    -19.14034124	     -0.65245435	     -8.95596794	     16.54228654	      0.28871737	     -9.25167624
     17.04666667	     -3.74140848	     -4.59892476	     -2.32237908	      2.34447344	      0.95718253	      1.05053747	     50.58054023	      4.49912070	     -2.55014339	     96.49807374	      1.68420911	      6.73534696	    -20.26722198	     -1.41225565	    -10.46009462	     15.84062473	      0.27647106	    -13.27857995
